<?xml version="1.0" standalone="no"?> <!DOCTYPE svg PUBLIC "-//W3C//DTD SVG 1.0//EN" "http://www.w3.org/TR/2001/REC-SVG-20010904/DTD/svg10.dtd" > <svg xmlns="http://www.w3.org/2000/svg" width="100%" height="100%">
<defs >
<font id="itcavantgardestd-bkcn" horiz-adv-x="468" ><font-face
    font-family="ITC Avant Garde Std Bk Cn"
    units-per-em="1000"
    panose-1="2 11 4 6 2 2 2 2 2 4"
    ascent="740"
    descent="-260"
    alphabetic="0" />
<missing-glyph horiz-adv-x="500" d="M0 0V700H500V0H0ZM250 395L420 650H80L250 395ZM280 350L450 95V605L280 350ZM80 50H420L250 305L80 50ZM50 605V95L220 350L50 605Z" />
<glyph unicode=" " glyph-name="space" horiz-adv-x="241" />
<glyph unicode="!" glyph-name="exclam" horiz-adv-x="248" d="M161 740V181H87V740H161ZM161 107V0H87V107H161Z" />
<glyph unicode="&quot;" glyph-name="quotedbl" horiz-adv-x="274" d="M98 464H33V740H98V464ZM240 464H176V740H240V464Z" />
<glyph unicode="#" glyph-name="numbersign" horiz-adv-x="521" d="M361 248L333 40H279L307 248H182L154 40H100L129 248H14V299H136L155 432H39V482H162L189 679H242L215 482H340L367 679H420L393 482H506V432H386L368 299H481V248H361ZM315 299L333 432H208L190
299H315Z" />
<glyph unicode="$" glyph-name="dollar" horiz-adv-x="521" d="M294 793V716Q366 706 403 657T445 543H373Q366 597 332 625T260 653Q218 653 186 621T154 539Q154 519 158 503T177 473T198 452T232 434T265 421T306 406Q336 395 356 384T405 351T448 293T463
209Q463 134 416 77T294 16V-74H232V16Q157 21 109 77T59 214H132Q137 149 176 114T266 79T352 117T387 209Q387 243 376 267T338 309T292 334T232 356Q226 358 223 359Q195 369 174 380T130 412T93 464T80 537Q80 609 121 659T232 716V793H294Z" />
<glyph unicode="%" glyph-name="percent" horiz-adv-x="782" d="M30 580V581Q30 658 77 705T198 753T318 705T366 580T319 456T198 408T78 455T30 580ZM86 580V579Q86 527 117 494T198 460T278 493T310 580Q310 634 279 667T198 701T118 668T86 580ZM416 160V161Q416
237 463 284T584 332T704 285T752 160T705 35T584 -13T464 35T416 160ZM472 160V159Q472 106 503 73T584 39T664 72T696 160Q696 213 665 246T584 280T504 247T472 160ZM634 744L211 -4H148L572 744H634Z" />
<glyph unicode="&amp;" glyph-name="ampersand" horiz-adv-x="637" d="M517 450H591L471 206L614 39L563 -7L437 143Q436 142 424 124T409 100T394 78T374 54T354 34T329 14T302 1T271 -10T237 -13Q149 -13 94 50T38 198T84 340T198 428Q169 462 157 478T132 525T117
589Q117 660 163 706T276 753Q342 753 386 706T431 594Q431 534 393 488T298 411L426 260L517 450ZM276 691H275Q233 691 210 663T186 596Q186 570 198 544T221 505T259 462Q312 492 337 523T362 595Q362 633 338 662T276 691ZM390 197L244 373Q116 310 114 204Q115
144 150 101T243 58Q272 58 296 71T341 113T368 154T390 197Z" />
<glyph unicode="&apos;" glyph-name="quotesingle" horiz-adv-x="222" d="M143 464H79V740H143V464Z" />
<glyph unicode="(" glyph-name="parenleft" horiz-adv-x="332" d="M304 749V676Q227 612 180 501T132 250Q132 -19 304 -177V-250Q199 -175 133 -44T67 250Q67 411 134 547T304 749Z" />
<glyph unicode=")" glyph-name="parenright" horiz-adv-x="332" d="M28 -250V-177Q105 -114 152 -3T200 248Q200 519 28 676V749Q133 674 199 542T266 248Q266 88 198 -48T28 -250Z" />
<glyph unicode="*" glyph-name="asterisk" horiz-adv-x="361" d="M209 740L197 606L308 683L336 633L216 577L337 520L308 469L197 547L209 413H151L163 548L54 469L24 521L144 578L24 632L52 683L164 606L151 740H209Z" />
<glyph unicode="+" glyph-name="plus" horiz-adv-x="537" d="M300 503V282H504V220H300V0H237V220H33V282H237V503H300Z" />
<glyph unicode="," glyph-name="comma" horiz-adv-x="257" d="M177 106L103 -83H44L110 106H177Z" />
<glyph unicode="-" glyph-name="hyphen" horiz-adv-x="262" d="M25 313H237V246H25V313Z" />
<glyph unicode="." glyph-name="period" horiz-adv-x="257" d="M163 106V0H95V106H163Z" />
<glyph unicode="/" glyph-name="slash" horiz-adv-x="278" d="M-49 -68L257 744H327L21 -68H-49Z" />
<glyph unicode="0" glyph-name="zero" horiz-adv-x="521" d="M43 229V511Q43 620 104 686T260 753T416 687T478 511V229Q478 119 416 53T260 -13T105 53T43 229ZM114 508V232Q114 142 159 99T260 55T361 98T406 232V508Q406 599 361 642T260 685T159 642T114 508Z" />
<glyph unicode="1" glyph-name="one" horiz-adv-x="521" d="M234 0V673H113V740H305V0H234Z" />
<glyph unicode="2" glyph-name="two" horiz-adv-x="521" d="M41 0V72L246 302Q316 380 346 429T377 538Q377 606 343 642T252 679Q194 679 158 638T118 509H45Q46 630 110 695Q167 753 256 753Q344 753 398 693T453 538Q453 432 352 312Q275 219 137 69H455V0H41Z" />
<glyph unicode="3" glyph-name="three" horiz-adv-x="521" d="M154 564H79Q82 655 134 704T268 753Q349 753 398 704T448 571Q448 452 336 418Q388 402 421 367T466 295T478 212Q478 112 421 50T262 -13Q203 -13 153 15T75 93Q45 145 42 220H117Q118 140 160 98T263
56Q328 56 364 99T401 218Q401 289 356 334T233 380H203V446H231Q300 446 336 478T372 566Q372 619 344 651T264 684Q210 684 183 652T154 564Z" />
<glyph unicode="4" glyph-name="four" horiz-adv-x="521" d="M331 0V145H38V211L325 740H402V212H465V145H402V0H331ZM107 212H331V635L107 212Z" />
<glyph unicode="5" glyph-name="five" horiz-adv-x="521" d="M121 740H442V676H186L156 448Q198 504 282 504Q368 504 423 433T478 252Q478 132 421 60T263 -13Q175 -13 116 46T47 217H121Q128 144 168 100T263 56Q330 56 365 107T401 246T363 384T267 435Q192
435 147 357L79 362L121 740Z" />
<glyph unicode="6" glyph-name="six" horiz-adv-x="521" d="M311 740H392L234 512Q227 502 212 483T189 453Q228 483 278 483Q361 483 419 418T477 244Q477 130 418 59T260 -13Q163 -13 104 57Q43 127 43 240Q43 308 64 361T125 470L311 740ZM121 229V228Q121
147 161 100T261 52Q325 52 362 102T400 240Q400 320 363 369T261 418Q197 418 159 368T121 229Z" />
<glyph unicode="7" glyph-name="seven" horiz-adv-x="521" d="M65 740H459V677L188 0H110L381 673H65V740Z" />
<glyph unicode="8" glyph-name="eight" horiz-adv-x="521" d="M75 567V568Q75 646 128 699T260 753Q339 753 392 700T445 567Q445 518 420 477T354 414Q411 394 445 340T481 215Q480 115 417 51T260 -13T103 51T39 215Q40 286 75 339T166 415Q124 435 100 477T75
567ZM151 559V558Q151 508 183 473T262 438Q307 438 338 473T370 559Q370 612 338 648T258 684Q214 684 183 648T151 559ZM116 215V214Q116 149 158 103T260 56Q321 56 362 102T404 215Q404 280 362 326T260 372T158 326T116 215Z" />
<glyph unicode="9" glyph-name="nine" horiz-adv-x="521" d="M210 0H128L287 228Q294 239 310 258T332 287Q292 257 243 257Q160 257 102 322T43 496Q43 610 103 681T261 753T416 683Q477 613 477 500Q477 432 456 379T396 270L210 0ZM399 511V512Q399 593 359
640T259 688Q195 688 158 638T120 500Q120 420 157 371T259 322Q323 322 361 372T399 511Z" />
<glyph unicode=":" glyph-name="colon" horiz-adv-x="257" d="M163 515V409H95V515H163ZM163 106V0H95V106H163Z" />
<glyph unicode=";" glyph-name="semicolon" horiz-adv-x="257" d="M173 515V409H104V515H173ZM177 106L103 -83H44L110 106H177Z" />
<glyph unicode="&lt;" glyph-name="less" horiz-adv-x="537" d="M33 284L504 507V438L114 251L504 66V-3L33 219V284Z" />
<glyph unicode="=" glyph-name="equal" horiz-adv-x="537" d="M33 384H504V322H33V384ZM33 181H504V118H33V181Z" />
<glyph unicode="&gt;" glyph-name="greater" horiz-adv-x="537" d="M33 66L423 251L33 438V507L504 284V219L33 -3V66Z" />
<glyph unicode="?" glyph-name="question" horiz-adv-x="477" d="M270 179H197Q197 183 197 199T197 220T198 240T200 262T204 281T209 303T217 323T228 345T242 365T261 388Q273 402 295 426T328 464T350 500T362 547Q362 604 328 642T238 681Q190 681 154 652T112
561Q111 552 111 533H36Q36 553 37 563Q45 658 103 705T239 753Q321 753 379 694T438 543Q438 505 421 469T388 414T339 361Q313 334 298 313T278 267T271 229T270 179ZM270 107V0H197V107H270Z" />
<glyph unicode="@" glyph-name="at" horiz-adv-x="757" d="M633 171H687Q643 81 563 34T395 -13Q243 -13 143 95T42 366Q42 531 143 642T396 753Q455 753 511 732T613 673T687 574T715 441Q715 367 689 309T626 219T553 172T492 156Q478 156 466 160T440 180T425
222Q381 158 315 158Q273 158 236 195T199 308Q199 409 256 490T391 572Q461 572 495 499L510 558H561L491 296L482 251Q481 212 518 212Q568 212 617 270T666 429Q666 559 587 630T396 702Q271 702 185 608T99 366T183 129T395 38Q468 38 531 70T633 171ZM258
314V313Q258 264 278 241T328 218Q376 218 405 252T446 328Q473 409 473 428Q472 471 448 493T395 515Q345 515 302 455T258 314Z" />
<glyph unicode="A" glyph-name="A" horiz-adv-x="495" d="M136 219L75 0H-2L209 740H283L497 0H421L358 219H136ZM338 287L247 643L156 287H338Z" />
<glyph unicode="B" glyph-name="B" horiz-adv-x="498" d="M67 0V740H221Q316 740 359 703Q423 659 423 554Q423 432 320 396Q371 381 403 347T447 278T458 204Q458 88 376 36Q329 0 247 0H67ZM142 673V420H224Q274 420 300 439Q346 473 346 548Q346 622 301 653Q274
673 208 673H142ZM142 353V67H234Q294 67 323 86Q381 116 382 207Q382 249 366 282T323 332Q292 353 225 353H142Z" />
<glyph unicode="C" glyph-name="C" horiz-adv-x="554" d="M451 241H525Q525 137 465 62T294 -13Q174 -13 106 86T37 370Q37 549 103 651T294 753Q405 753 465 675T525 483H451Q449 567 413 625T298 683Q204 683 159 599T114 363T164 134T298 57Q376 57 411 110T451 241Z" />
<glyph unicode="D" glyph-name="D" horiz-adv-x="582" d="M67 0V740H237Q406 740 479 633Q544 538 544 370Q544 267 521 193T454 78T358 19T239 0H67ZM142 671V69H233Q359 69 413 145T468 370Q468 525 416 596Q363 671 231 671H142Z" />
<glyph unicode="E" glyph-name="E" horiz-adv-x="475" d="M70 0V740H417V671H145V413H417V344H145V69H417V0H70Z" />
<glyph unicode="F" glyph-name="F" horiz-adv-x="423" d="M66 0V740H385V671H141V413H385V345H141V0H66Z" />
<glyph unicode="G" glyph-name="G" horiz-adv-x="612" d="M559 495H484Q482 557 451 609Q405 685 316 685Q223 685 169 604T114 370Q114 212 169 134T316 55Q417 55 461 142Q493 206 493 310H285V378H570Q570 305 568 269Q566 218 552 171T509 82T431 13T316 -13Q179
-13 108 92T37 370Q37 544 112 648T316 753Q427 753 490 680T559 495Z" />
<glyph unicode="H" glyph-name="H" horiz-adv-x="548" d="M142 0H67V740H142V413H405V740H481V0H405V344H142V0Z" />
<glyph unicode="I" glyph-name="I" horiz-adv-x="210" d="M67 0V740H142V0H67Z" />
<glyph unicode="J" glyph-name="J" horiz-adv-x="427" d="M360 740V204Q360 136 344 92Q323 45 285 19Q243 -13 184 -13Q114 -13 65 28T7 146Q5 164 5 175H78L81 160Q100 55 187 55Q246 58 271 117Q285 150 285 214V740H360Z" />
<glyph unicode="K" glyph-name="K" horiz-adv-x="464" d="M67 0V740H142V382L374 740H459L216 374L478 0H389L142 357V0H67Z" />
<glyph unicode="L" glyph-name="L" horiz-adv-x="397" d="M70 0V740H145V69H381V0H70Z" />
<glyph unicode="M" glyph-name="M" horiz-adv-x="707" d="M137 0H69V740H185L359 109L521 740H638V0H570V671L395 0H325L137 671V0Z" />
<glyph unicode="N" glyph-name="N" horiz-adv-x="596" d="M159 740L459 123V740H527V0H443L137 632V0H69V740H159Z" />
<glyph unicode="O" glyph-name="O" horiz-adv-x="613" d="M37 370V371Q37 540 107 646T306 753T505 647T575 370Q575 296 560 230T514 108T430 20T306 -13Q177 -13 107 93T37 370ZM114 370V369Q114 219 165 137T306 55T447 137T499 370T448 603T306 685T165 603T114 370Z" />
<glyph unicode="P" glyph-name="P" horiz-adv-x="489" d="M70 740H210Q332 740 395 689Q428 662 447 617T467 519Q467 466 448 421T395 348Q332 297 210 297H145V0H70V740ZM145 671V366H210Q263 366 292 373T346 401Q391 436 391 518Q391 556 379 588T345 637Q322
657 292 664T210 671H145Z" />
<glyph unicode="Q" glyph-name="Q" horiz-adv-x="617" d="M587 57V-12Q580 -13 565 -13Q497 -13 453 38Q393 -13 306 -13Q177 -13 107 93T37 370T107 646T306 753T505 647T575 370Q575 189 499 91Q532 50 587 57ZM306 685H305Q216 685 165 603T114 370Q114 290
132 233Q190 272 253 272Q308 272 358 236Q403 202 445 147Q466 174 482 233T499 370Q499 520 448 602T306 685ZM306 55H307Q368 55 411 95Q376 143 341 171Q295 207 241 207Q188 207 145 172Q198 55 306 55Z" />
<glyph unicode="R" glyph-name="R" horiz-adv-x="502" d="M67 0V740H208Q342 740 391 696Q468 633 468 517Q468 436 435 383Q389 310 307 298L455 0H371L206 344Q223 344 232 345Q307 346 348 385Q391 427 391 510Q391 604 335 646Q302 671 206 671H142V0H67Z" />
<glyph unicode="S" glyph-name="S" horiz-adv-x="494" d="M36 204H109Q115 125 154 89T242 53Q303 53 342 91T382 197Q382 285 294 326Q274 335 217 354Q183 366 163 375T111 407T64 464T48 546Q47 642 101 698T243 754Q417 754 441 566H369Q353 690 245 690Q189
690 157 654T124 559Q124 531 133 509T155 474T194 447T238 427T293 408Q317 400 333 393T375 369T417 332T445 277T458 201Q458 105 397 46T244 -13Q153 -13 96 42T36 204Z" />
<glyph unicode="T" glyph-name="T" horiz-adv-x="412" d="M169 0V671H19V740H394V671H244V0H169Z" />
<glyph unicode="U" glyph-name="U" horiz-adv-x="553" d="M64 740H139V200Q139 125 176 89Q209 56 276 56T377 89Q414 125 414 200V740H489V195Q489 95 437 43Q383 -13 277 -13T115 43Q64 95 64 195V740Z" />
<glyph unicode="V" glyph-name="V" horiz-adv-x="504" d="M216 0L2 740H78L253 104L429 740H502L288 0H216Z" />
<glyph unicode="W" glyph-name="W" horiz-adv-x="783" d="M181 0L3 740H77L222 113L355 740H431L564 113L707 740H780L604 0H526L391 637L259 0H181Z" />
<glyph unicode="X" glyph-name="X" horiz-adv-x="462" d="M4 0L191 394L27 740H105L231 459L357 740H436L271 394L457 0H378L231 326L83 0H4Z" />
<glyph unicode="Y" glyph-name="Y" horiz-adv-x="449" d="M187 0V269L-3 740H75L225 341L374 740H452L262 269V0H187Z" />
<glyph unicode="Z" glyph-name="Z" horiz-adv-x="486" d="M445 677L121 69H457V0H34V60L357 671H34V740H445V677Z" />
<glyph unicode="[" glyph-name="bracketleft" horiz-adv-x="332" d="M287 -179V-236H84V740H287V683H147V-179H287Z" />
<glyph unicode="\" glyph-name="backslash" horiz-adv-x="278" d="M259 -68L-47 744H19L325 -68H259Z" />
<glyph unicode="]" glyph-name="bracketright" horiz-adv-x="332" d="M45 -236V-179H185V683H45V740H248V-236H45Z" />
<glyph unicode="^" glyph-name="asciicircum" horiz-adv-x="537" d="M66 381L235 740H301L471 381H404L268 675L132 381H66Z" />
<glyph unicode="_" glyph-name="underscore" horiz-adv-x="500" d="M500 -125H0V-75H500V-125Z" />
<glyph unicode="`" glyph-name="grave" horiz-adv-x="418" d="M97 769L318 643L292 596L69 715L97 769Z" />
<glyph unicode="a" glyph-name="a" horiz-adv-x="490" d="M424 544V0H362Q362 78 363 104Q345 48 308 18T219 -13Q138 -13 88 65T37 271Q37 399 86 478T219 557Q324 557 363 439Q362 472 362 544H424ZM104 272V271Q104 175 137 114T231 53Q290 53 326 113Q357
164 357 272Q357 381 326 431Q290 491 231 491Q171 491 138 430T104 272Z" />
<glyph unicode="b" glyph-name="b" horiz-adv-x="490" d="M66 0V740H133V544Q133 466 131 440Q146 494 182 525T270 557Q355 557 404 479T453 273Q453 144 403 66T270 -13Q168 -13 127 105Q128 72 128 0H66ZM386 272V273Q386 366 354 428T260 491Q195 491 164
428T133 272T164 117T260 53Q321 53 353 115T386 272Z" />
<glyph unicode="c" glyph-name="c" horiz-adv-x="445" d="M355 185H424Q415 97 369 42T244 -13Q141 -13 88 69T34 271Q34 403 91 480T241 557Q323 557 370 501T421 356H353Q339 494 239 494Q173 494 140 436Q105 373 105 272Q105 165 140 108T240 50Q289 50 318
86T355 185Z" />
<glyph unicode="d" glyph-name="d" horiz-adv-x="490" d="M424 740V0H362Q362 80 363 108Q349 52 310 20T219 -13Q138 -13 88 65T37 271Q37 399 86 478T219 557Q319 557 359 442Q357 474 357 544V740H424ZM104 273V272Q104 176 137 115T231 54Q290 54 326 114Q357
165 357 273T326 432Q290 491 231 491Q171 491 138 430T104 273Z" />
<glyph unicode="e" glyph-name="e" horiz-adv-x="478" d="M441 252H109Q109 163 145 107T247 50Q295 50 326 79T369 158H435Q421 77 367 30Q316 -13 247 -13Q193 -13 152 11T87 77T51 167T39 271Q39 399 94 478T245 557T391 480Q443 403 441 252ZM109 311H373Q371
397 337 448T242 500Q184 500 148 447T109 311Z" />
<glyph unicode="f" glyph-name="f" horiz-adv-x="250" d="M80 0V481H19V544H80V585Q80 631 94 665T127 715T171 740T211 751T242 753V694Q147 688 147 579V544H242V481H147V0H80Z" />
<glyph unicode="g" glyph-name="g" horiz-adv-x="490" d="M424 544V10Q424 -99 378 -153Q327 -213 232 -213Q205 -213 177 -205T120 -178T72 -124T49 -42H117Q123 -91 148 -118Q181 -151 235 -151Q358 -151 358 5Q358 66 359 102Q344 48 308 18T219 -13Q133 -13
85 65T37 271Q37 400 85 478T219 557Q322 557 366 439Q365 472 365 544H424ZM104 272V271Q104 175 137 114T231 53Q290 53 326 113Q357 164 357 272Q357 381 326 431Q290 491 231 491Q171 491 138 430T104 272Z" />
<glyph unicode="h" glyph-name="h" horiz-adv-x="497" d="M66 0V740H133V548Q133 491 131 458Q164 557 277 557Q353 557 394 508Q434 463 434 358V0H367V338Q367 420 342 456Q318 491 263 491Q201 491 167 447T133 309V0H66Z" />
<glyph unicode="i" glyph-name="i" horiz-adv-x="215" d="M74 642V740H141V642H74ZM74 0V544H141V0H74Z" />
<glyph unicode="j" glyph-name="j" horiz-adv-x="212" d="M71 641V740H138V641H71ZM138 544V-7Q138 -185 24 -203Q8 -205 0 -205V-140Q2 -140 5 -140T9 -138Q34 -132 48 -113T66 -68T71 1V544H138Z" />
<glyph unicode="k" glyph-name="k" horiz-adv-x="394" d="M63 0V740H130V311L305 544H381L193 302L394 0H319L130 281V0H63Z" />
<glyph unicode="l" glyph-name="l" horiz-adv-x="215" d="M74 0V740H141V0H74Z" />
<glyph unicode="m" glyph-name="m" horiz-adv-x="755" d="M68 0V544H132Q132 487 130 455Q164 557 268 557Q326 557 363 520Q387 495 393 455Q407 498 438 524Q483 557 538 557Q624 557 665 487Q690 446 690 338V0H623V333Q623 403 612 434Q603 461 581 476T529
491Q473 491 441 447Q412 405 412 328V0H345V330Q345 400 334 434Q326 461 304 476T252 491Q197 491 164 449Q135 408 135 326V0H68Z" />
<glyph unicode="n" glyph-name="n" horiz-adv-x="497" d="M66 0V544H126Q126 485 124 451Q163 557 278 557Q351 557 392 512T434 371V0H367V350Q367 491 263 491Q202 491 168 448T133 322V0H66Z" />
<glyph unicode="o" glyph-name="o" horiz-adv-x="493" d="M37 272V273Q37 397 90 477T247 557Q350 557 403 477T456 272T403 67T247 -13Q143 -13 90 67T37 272ZM107 272V271Q107 50 248 50Q386 50 386 272T246 494Q107 494 107 272Z" />
<glyph unicode="p" glyph-name="p" horiz-adv-x="490" d="M66 -201V544H128Q128 473 127 440Q167 557 270 557Q352 557 402 479T453 271Q453 144 404 66T270 -13Q222 -13 185 17T131 99Q133 75 133 0V-201H66ZM386 272V273Q386 369 353 430T259 491Q200 491 166
431Q133 380 133 272Q133 165 166 113Q200 53 259 53Q320 53 353 114T386 272Z" />
<glyph unicode="q" glyph-name="q" horiz-adv-x="490" d="M424 544V-201H357V0Q357 76 359 102Q342 47 305 17T219 -13Q135 -13 86 65T37 271Q37 400 87 478T219 557Q327 557 361 440Q360 473 360 544H424ZM104 272V271Q104 175 137 114T231 53Q290 53 326 113Q357
164 357 272Q357 381 326 431Q290 491 231 491Q171 491 138 430T104 272Z" />
<glyph unicode="r" glyph-name="r" horiz-adv-x="277" d="M66 0V544H128Q128 463 126 430Q157 552 271 557V479Q260 486 246 486Q205 486 169 436T133 292V0H66Z" />
<glyph unicode="s" glyph-name="s" horiz-adv-x="403" d="M351 403H285Q285 497 197 497Q162 497 140 475T118 416Q118 374 147 353T235 313Q365 274 365 149Q365 78 319 33T203 -13Q127 -13 82 31T33 160H99Q100 106 128 78T203 49Q246 49 270 75T295 144Q295
190 266 215T176 259Q115 279 82 313T48 414Q48 479 90 518T200 557Q270 557 309 518T351 403Z" />
<glyph unicode="t" glyph-name="t" horiz-adv-x="250" d="M92 0V481H16V544H92V716H159V544H234V481H159V0H92Z" />
<glyph unicode="u" glyph-name="u" horiz-adv-x="497" d="M431 544V0H369Q369 61 371 95Q352 40 311 14T219 -13Q146 -13 105 32T63 173V544H130V194Q130 53 234 53Q295 53 329 96T364 222V544H431Z" />
<glyph unicode="v" glyph-name="v" horiz-adv-x="391" d="M390 544L232 0H165L1 544H69L198 90L323 544H390Z" />
<glyph unicode="w" glyph-name="w" horiz-adv-x="622" d="M149 0L3 544H72L183 97L281 496H342L440 97L550 544H618L472 0H406L312 397L216 0H149Z" />
<glyph unicode="x" glyph-name="x" horiz-adv-x="383" d="M5 0L151 277L11 544H87L191 330L296 544H371L230 277L378 0H301L191 223L81 0H5Z" />
<glyph unicode="y" glyph-name="y" horiz-adv-x="399" d="M93 -201L163 13L6 544H76L197 111L325 544H394L160 -201H93Z" />
<glyph unicode="z" glyph-name="z" horiz-adv-x="397" d="M20 0V62L281 481H37V544H361V480L101 63H370V0H20Z" />
<glyph unicode="{" glyph-name="braceleft" horiz-adv-x="332" d="M276 740V685H232Q196 685 184 666T172 590V402Q171 348 146 305T89 244Q125 232 148 194T172 92V-96Q172 -155 184 -173T232 -192H276V-247H209Q155 -247 132 -215T108 -118V76Q108 191 37 217V272Q69
277 88 316T108 416V613Q108 677 131 708T209 740H276Z" />
<glyph unicode="|" glyph-name="bar" horiz-adv-x="397" d="M167 750H231V-250H167V750Z" />
<glyph unicode="}" glyph-name="braceright" horiz-adv-x="332" d="M56 685V740H123Q177 740 200 708T224 611V417Q224 303 296 276V222Q264 217 244 177T224 77V-119Q224 -183 201 -215T123 -247H56V-192H100Q136 -192 148 -173T161 -97V92Q161 145 186 188T243
249Q207 261 184 300T161 402V589Q161 648 149 666T100 685H56Z" />
<glyph unicode="~" glyph-name="asciitilde" horiz-adv-x="537" d="M450 311L475 261Q434 186 374 186Q343 186 271 219Q201 253 175 253Q122 255 87 192L62 242Q104 320 175 317Q209 317 281 283Q353 250 374 250Q413 250 450 311Z" />
</font>
</defs>
</svg>
